<svg xmlns="http://www.w3.org/2000/svg" xmlns:xlink="http://www.w3.org/1999/xlink" contentStyleType="text/css" height="312px" preserveAspectRatio="none" style="width:207px;height:312px;background:#FFFFFF;" version="1.1" viewBox="0 0 207 312" width="207px" zoomAndPan="magnify"><defs/><g><!--cluster echoserver-deployment--><g id="cluster_echoserver-deployment"><rect fill="none" height="299" rx="2.5" ry="2.5" style="stroke:#181818;stroke-width:1.0;" width="194" x="7" y="7"/><path d="M174.9443,7 L174.9443,18.6211 L164.9443,28.6211 L7,28.6211 " fill="none" style="stroke:#181818;stroke-width:1.0;"/><text fill="#000000" font-family="sans-serif" font-size="14" font-weight="bold" lengthAdjust="spacing" textLength="157.9443" x="10" y="23.1074">echoserver-deployment</text></g><!--cluster pod--><g id="cluster_pod"><rect fill="none" height="230" rx="2.5" ry="2.5" style="stroke:#181818;stroke-width:1.0;" width="146" x="31" y="52"/><path d="M66.6553,52 L66.6553,63.6211 L56.6553,73.6211 L31,73.6211 " fill="none" style="stroke:#181818;stroke-width:1.0;"/><text fill="#000000" font-family="sans-serif" font-size="14" font-weight="bold" lengthAdjust="spacing" textLength="25.6553" x="34" y="68.1074">pod</text></g><!--entity envoy--><g id="elem_envoy"><polygon fill="#F1F1F1" points="65.5,99,75.5,89,142.8584,89,142.8584,127.6211,132.8584,137.6211,65.5,137.6211,65.5,99" style="stroke:#181818;stroke-width:0.5;"/><line style="stroke:#181818;stroke-width:0.5;" x1="132.8584" x2="142.8584" y1="99" y2="89"/><line style="stroke:#181818;stroke-width:0.5;" x1="65.5" x2="132.8584" y1="99" y2="99"/><line style="stroke:#181818;stroke-width:0.5;" x1="132.8584" x2="132.8584" y1="99" y2="137.6211"/><text fill="#000000" font-family="sans-serif" font-size="14" lengthAdjust="spacing" textLength="37.3584" x="80.5" y="124.1074">envoy</text></g><!--entity echo-server--><g id="elem_echo-server"><polygon fill="#F1F1F1" points="47,227,57,217,160.917,217,160.917,255.6211,150.917,265.6211,47,265.6211,47,227" style="stroke:#181818;stroke-width:0.5;"/><line style="stroke:#181818;stroke-width:0.5;" x1="150.917" x2="160.917" y1="227" y2="217"/><line style="stroke:#181818;stroke-width:0.5;" x1="47" x2="150.917" y1="227" y2="227"/><line style="stroke:#181818;stroke-width:0.5;" x1="150.917" x2="150.917" y1="227" y2="265.6211"/><text fill="#000000" font-family="sans-serif" font-size="14" lengthAdjust="spacing" textLength="73.917" x="62" y="252.1074">echo-server</text></g><!--link envoy to echo-server--><g id="link_envoy_echo-server"><path d="M104,138.2 C104,160.73 104,188.42 104,210.91 " fill="none" id="envoy-to-echo-server" style="stroke:#181818;stroke-width:1.0;"/><polygon fill="#181818" points="104,216.91,108,207.91,104,211.91,100,207.91,104,216.91" style="stroke:#181818;stroke-width:1.0;"/><text fill="#000000" font-family="sans-serif" font-size="13" lengthAdjust="spacing" textLength="14.46" x="105" y="183.0283">80</text></g><!--SRC=[IojAp4rLK4fDpiWlJYqgIotIJKajoCclp4tDAr5IgEPI088qY9g2_1IO20ZavQUaAgJcbULNeWg1pTA56AO4bm8hLD3LjKELLx1Ii300AwhbgkK20000]--></g></svg>